<?xml version="1.0" encoding="UTF-8" standalone="no"?>
<svg
   xmlns:dc="http://purl.org/dc/elements/1.1/"
   xmlns:cc="http://creativecommons.org/ns#"
   xmlns:rdf="http://www.w3.org/1999/02/22-rdf-syntax-ns#"
   xmlns:svg="http://www.w3.org/2000/svg"
   xmlns="http://www.w3.org/2000/svg"
   xmlns:sodipodi="http://sodipodi.sourceforge.net/DTD/sodipodi-0.dtd"
   xmlns:inkscape="http://www.inkscape.org/namespaces/inkscape"
   width="300"
   height="247"
   viewBox="0 0 1000 817"
   version="1.0"
   id="svg2"
   sodipodi:version="0.32"
   inkscape:version="0.46"
   sodipodi:docname="1000px-BHEL_Logo.svg"
   inkscape:output_extension="org.inkscape.output.svg.inkscape">
  <metadata
     id="metadata39">
    <rdf:RDF>
      <cc:Work
         rdf:about="">
        <dc:format>image/svg+xml</dc:format>
        <dc:type
           rdf:resource="http://purl.org/dc/dcmitype/StillImage" />
      </cc:Work>
    </rdf:RDF>
  </metadata>
  <defs
     id="defs37">
    <inkscape:perspective
       sodipodi:type="inkscape:persp3d"
       inkscape:vp_x="0 : 510.625 : 1"
       inkscape:vp_y="0 : 1000 : 0"
       inkscape:vp_z="1250 : 510.625 : 1"
       inkscape:persp3d-origin="625 : 340.41667 : 1"
       id="perspective41" />
  </defs>
  <sodipodi:namedview
     inkscape:window-height="669"
     inkscape:window-width="640"
     inkscape:pageshadow="2"
     inkscape:pageopacity="0.0"
     guidetolerance="10.0"
     gridtolerance="10.0"
     objecttolerance="10.0"
     borderopacity="1.0"
     bordercolor="#666666"
     pagecolor="#ffffff"
     id="base"
     showgrid="false"
     inkscape:zoom="0.4352"
     inkscape:cx="625"
     inkscape:cy="510.625"
     inkscape:window-x="115"
     inkscape:window-y="95"
     inkscape:current-layer="svg2" />
  <g
     id="#232c65ff">
    <path
       d="M 87.64,0 L 918.42,0 C 927.92,1.31 937.53,-0.37 947.03,1.04 C 964.72,2.99 981,13.58 990.37,28.64 C 996.17,37.44 998.86,47.81 1000,58.19 L 1000,758.77 C 998.84,766.88 997.31,775.07 993.51,782.41 C 986.14,797.65 972.01,809.36 955.7,813.85 C 940.69,818.35 924.81,814.17 909.61,817 L 80.9,817 C 77.68,816.13 74.35,815.73 71.02,815.95 C 61.3,816.4 51.33,816.21 42,813.12 C 21.92,806.71 5.89,789 1.77,768.29 C -0.99,754.84 1.69,741.05 0,727.5 L 0,82.49 C 1.3,73.04 -0.24,63.49 0.88,54.03 C 3.14,29.5 22.38,7.76 46.34,2.21 C 59.9,-1.01 73.92,1.6 87.64,0 M 32.03,29.12 C 23.27,36.85 18.18,48.37 18,60.02 C 18,101.3 17.99,142.58 18,183.85 C 339.34,183.84 660.68,183.85 982.02,183.85 C 982.04,142.91 982,101.96 982.04,61.02 C 982.48,48.5 976.47,36.14 967,28.09 C 959.31,21.43 949.13,18.05 939.02,18 C 646.02,18 353.02,18 60.02,18 C 49.76,18.21 39.6,22.15 32.03,29.12 M 388.92,380 C 393.49,380 398.07,380.01 402.66,379.99 C 377.05,460.19 351.56,540.42 325.9,620.59 C 342.09,620.56 358.28,620.79 374.48,620.74 C 359.82,668.36 344.74,715.86 329.99,763.46 C 363.57,717.31 396.85,670.93 430.34,624.71 C 425.81,624.57 421.28,624.63 416.76,624.61 C 428.95,587.63 442.06,550.95 454.4,514.02 C 464.34,514.77 474.27,515.68 484.18,516.74 C 473.8,551.32 463.58,585.95 453.12,620.5 C 467.76,620.88 482.42,620.61 497.07,620.77 C 481.49,670.45 466.46,720.3 450.86,769.97 C 487.85,721.87 523.92,673.08 560.93,625 C 555.91,624.72 550.88,624.56 545.85,624.38 C 572.45,544.04 599.56,463.86 626.41,383.6 C 609.19,383.16 591.96,383.55 574.73,383.38 C 589.38,334.31 604.71,285.45 619.32,236.37 C 617.93,236.87 616.45,237.39 615.69,238.76 C 586.73,278.77 557.72,318.76 528.75,358.76 C 523.69,365.67 518.87,372.76 513.26,379.24 C 518.12,379.27 522.99,379.26 527.84,379.75 C 516.79,415.77 504.93,451.57 493.68,487.54 C 483.67,486.86 473.62,487.06 463.65,485.88 C 474.26,451.57 485.26,417.37 496.09,383.12 C 479.92,383.17 463.75,383.38 447.58,383.38 C 462.77,333.77 478.86,284.42 493.84,234.74 C 458.86,283.15 424.02,331.67 388.92,380 M 164.55,383.35 C 133.87,458.67 109.08,536.19 83.17,613.22 C 82.35,615.82 82.55,618.67 83.89,621.07 C 150.9,620.49 217.91,620.82 284.92,620.62 C 296.47,591.8 307.58,562.79 318.88,533.86 C 321.2,527.02 325.1,520.45 325.22,513.06 C 325.56,508.49 323.01,504.44 319.99,501.27 C 325.69,498.32 332.84,495.71 335.08,489.07 C 344.02,461.36 352.91,433.64 361.83,405.93 C 363.6,400.34 365.03,394.3 363.65,388.48 C 362.56,384.31 357.78,383.05 354,383 C 292.34,382.98 230.68,383.05 169.02,382.93 C 167.55,383.07 165.9,382.64 164.55,383.35 M 825.45,383.05 C 799.61,457.61 773.37,532.03 747.39,606.54 C 746.35,611.26 747.12,616.17 747.33,620.96 C 793.96,621.05 840.59,621.25 887.21,621.98 C 893.1,614.3 896.6,604.64 896.08,594.91 C 891.69,594.78 887.31,594.65 882.93,594.42 C 871.81,593.62 860.65,594.3 849.53,593.42 C 871.98,524.11 895.04,454.99 917.48,385.68 C 899.7,384.66 881.88,385.25 864.11,384.04 C 851.21,384.23 838.33,383.32 825.45,383.05 M 661.32,383.52 C 648.23,417.95 635.26,452.44 623.08,487.2 C 608.28,528.94 594.2,570.93 580.16,612.93 C 578.77,616.81 581.55,621.4 585.9,620.97 C 631.14,620.92 676.38,621.27 721.62,621.77 C 725.66,613.84 728.63,605.08 728.03,596.06 C 712.28,595.03 696.59,593.48 680.84,592.54 C 689.9,566.84 699.36,541.26 708.82,515.72 C 725.19,514.96 741.64,515.28 758.04,515.18 C 762.13,507.06 764.58,498.09 765.12,489.01 C 756.72,489.04 748.32,488.7 739.94,488.11 C 732.72,487.9 725.49,488.07 718.29,487.54 C 727.54,460.97 736.47,434.28 745.76,407.74 C 751.68,406.68 757.89,407.26 763.93,407 C 774.21,407.13 784.47,406.27 794.75,406.22 C 799.39,399.59 801.43,391.54 802.19,383.58 C 755.24,384.01 708.27,383.07 661.32,383.52 z"
       id="path5"
       style="opacity:1;fill:#232c65" />
    <path
       d="M 613.48,33.46 C 615.54,28.64 620.89,25.73 626.05,25.98 C 637.71,26 649.37,26.12 661.03,26.2 C 664.3,26.1 667.76,27.57 669.53,30.41 C 672.41,35.03 670.35,40.87 668.18,45.32 C 660.75,45.89 653.27,45.86 645.82,45.92 C 646.42,43.53 647.06,41.16 647.68,38.77 C 643.85,38.73 640.02,38.65 636.2,38.58 C 634.86,43.05 633.56,47.54 632.37,52.05 C 646.56,52.12 660.76,51.98 674.96,52.19 C 673.92,56.45 673.11,60.76 671.92,64.98 C 658.95,64.89 645.99,65.05 633.03,64.96 C 631.51,65.02 629.94,64.83 628.49,65.3 C 626.43,72.23 624.67,79.24 622.58,86.16 L 622.02,86.69 C 610.31,86.75 598.6,86.28 586.89,86.08 C 584.79,86.14 582,86.84 581.27,89.08 C 579.97,93.79 578.4,98.57 578.93,103.53 C 587.96,104.39 597.04,103.83 606.1,104.01 C 608.48,103.74 610.36,105.7 611.27,107.71 C 612.87,111.29 613.23,115.38 612.21,119.18 C 610.57,125.74 608.61,132.21 606.71,138.7 C 604.77,145.25 599.19,151.12 592.17,151.83 C 584.92,151.99 577.68,151.3 570.44,151.07 C 568.73,158.43 566.57,165.68 564.71,173 C 557.08,172.99 549.45,173.02 541.81,172.98 C 543.65,166.57 545.8,160.26 548.04,153.99 C 545.79,150.37 543.52,146.35 543.99,141.92 C 544.3,136.18 549.51,131.92 554.9,130.96 C 559.87,129.92 565.51,129.09 570.12,131.79 C 572.05,132.82 572.79,134.98 573.56,136.89 C 577.13,136.9 581.89,138.79 584.59,135.61 C 586.56,129.68 588.09,123.43 587.96,117.14 C 579.2,116.69 570.39,117.15 561.65,116.37 C 557.88,116.16 554.86,112.78 555.01,109.05 C 555.19,103.93 556.98,99.05 557.9,94.04 C 558.94,89.81 559.48,85.37 561.39,81.41 C 563.55,77.59 567.57,74.96 571.9,74.33 C 581.5,73.4 591.23,75.08 600.79,74.02 C 603.1,71.72 603.13,67.97 604.17,64.97 C 575.32,64.95 546.46,65 517.6,65 C 518.59,60.75 518.92,55.92 520.97,52.15 C 549.92,52.02 578.89,52.12 607.84,52.01 C 609.64,45.81 610.79,39.37 613.48,33.46 z"
       id="path7"
       style="opacity:1;fill:#232c65" />
    <path
       d="M 197.96,34.81 C 200.4,28.98 207.12,26.5 213.02,26.33 C 224.34,26.41 235.64,27.22 246.96,26.99 C 252.26,26.48 256.88,31.77 256.13,36.95 C 255.55,42.12 253.49,46.99 252.48,52.09 C 260.03,52.12 267.59,52.03 275.15,52.14 C 274.23,56.48 273.41,60.86 271.74,64.99 C 264.1,64.99 256.46,64.99 248.82,64.98 C 238.84,100.27 229.25,135.67 219.22,170.95 C 211.67,170.78 204.15,170.07 196.6,169.94 C 206.16,134.89 216.15,99.94 226.04,64.98 C 221.38,65 216.72,64.98 212.06,64.94 C 201.8,99.9 192.06,135.01 181.9,170 C 174.2,170.02 166.5,169.95 158.8,169.69 C 160.27,163.52 162.25,157.48 164.04,151.39 C 150.36,151.11 136.64,151.91 122.99,150.84 C 117.05,148.7 114.75,141.15 116.6,135.49 C 121.51,118.51 126.52,101.55 131.7,84.65 C 133.07,79.65 138.02,76.73 142.9,76.12 C 157.42,74.1 172.12,75.6 186.7,74.54 C 187.41,71.33 188.15,68.13 189.02,64.95 C 157.28,64.95 125.53,65.01 93.79,64.99 C 94.53,60.62 95.66,56.34 96.84,52.08 C 128.84,52.13 160.83,52.04 192.82,52.04 C 194.52,46.29 195.93,40.45 197.96,34.81 M 219.34,38.84 C 218.2,43.27 216.72,47.61 215.66,52.07 C 220.31,52.11 224.96,52.12 229.6,51.97 C 230.68,47.65 232.22,43.43 232.66,38.97 C 228.22,38.76 223.77,38.48 219.34,38.84 M 163.68,88.05 C 166.92,97.05 170.7,105.86 173.54,115 C 176.38,105.94 178.78,96.75 181.37,87.61 C 175.47,87.64 169.57,87.83 163.68,88.05 M 142.85,124.05 C 141.81,128.26 140,132.51 140.87,136.93 C 146.52,139.12 152.79,137.5 158.71,138 C 155.08,127.07 151.77,116.04 148.05,105.14 C 146.02,111.36 144.61,117.75 142.85,124.05 z"
       id="path9"
       style="opacity:1;fill:#232c65" />
    <path
       d="M 292.33,52.11 C 362.68,52.06 433.03,52.1 503.38,52.09 C 502.69,56.41 501.55,60.63 500.62,64.9 C 494.09,65.01 487.56,64.94 481.03,64.95 C 470.81,99.91 461.06,135.02 450.88,170 C 443.28,170.02 435.67,169.98 428.09,169.51 C 429.72,163.24 431.58,157.03 433.31,150.79 C 419.87,150.64 406.43,150.43 393.02,149.84 C 388.28,148.71 385.85,143.52 385.95,138.99 C 385.67,134.31 387.36,129.88 388.54,125.44 C 392.18,112.29 395.98,99.18 399.53,86 C 393.88,85.99 388.23,86 382.58,86 C 383.67,81.71 384.89,77.46 386.17,73.23 C 403.8,73.23 421.42,74.07 439.04,74.03 C 437.59,78.25 436.3,82.53 434.69,86.7 C 431.45,86.56 428.22,86.55 425,86.65 C 420.6,100.11 416.49,113.67 412.08,127.12 C 411.11,129.87 410.38,132.83 411.06,135.74 C 412.4,137.65 414.98,137.07 416.99,137.34 C 423.62,137.39 430.25,137.45 436.89,137.5 C 443.78,113.37 450.34,89.15 457.15,64.99 C 429.15,64.98 401.16,64.99 373.17,65 C 368.91,81.11 364.72,97.24 360.23,113.29 C 358.46,119.52 352.79,125.12 346.03,125.01 C 338.43,125 330.84,125.03 323.25,124.93 C 324.48,120.59 326.09,116.38 327.51,112.1 C 330.57,111.85 334,112.6 336.67,110.69 C 337.99,109.37 338.23,107.41 338.83,105.73 C 342.71,92.17 346.3,78.54 350.13,64.97 C 341.47,65.01 332.82,64.97 324.17,65 C 319.92,80.96 315.73,96.93 311.58,112.91 C 310.55,116.37 310.72,120.22 312.73,123.3 C 321.55,138.67 330.38,154.03 339.23,169.39 C 330.74,169.52 322.22,169.91 313.75,169.42 C 305.99,156.05 298.63,142.44 291.03,128.98 C 287.53,123.07 287.78,115.86 289.62,109.46 C 293.77,94.63 297.85,79.79 302.1,64.98 C 297.78,64.99 293.47,65.04 289.16,64.87 C 290.2,60.61 291.19,56.34 292.33,52.11 z"
       id="path11"
       style="opacity:1;fill:#232c65" />
    <path
       d="M 692.11,52.07 C 763.57,52.11 835.03,52.06 906.48,52.15 C 905.58,56.5 904.38,60.77 903.06,65.01 C 897.88,65.16 892.65,64.59 887.52,65.28 C 877.69,100.19 867.99,135.15 857.94,170.01 C 850.25,169.98 842.56,170.05 834.88,169.72 C 842.46,142.98 850.09,116.26 857.77,89.56 C 857.21,88.68 856.66,87.81 856.12,86.94 C 852.43,86.64 848.69,86.44 845.05,87.13 C 843.53,87.41 842.68,88.85 842.35,90.23 C 839.44,101.73 836.95,113.33 833.95,124.8 C 826.54,124.77 819.14,124.73 811.74,124.93 C 814.22,113.85 817.4,102.94 820.07,91.91 C 820.56,90.35 820.26,88.74 819.97,87.18 C 815.93,86.91 811.87,86.57 807.82,86.87 C 805.32,90.11 804.96,94.31 803.77,98.1 C 797.16,121.98 790.81,145.94 784.04,169.78 C 776.3,169.77 768.57,170.04 760.84,169.9 C 768.66,142.04 776.39,114.16 784.25,86.31 C 785.85,80.02 791.16,74.12 798,74.02 C 808.36,74 818.73,73.97 829.09,74.06 C 832.77,73.82 835.13,77.16 836.4,80.17 C 838.52,77.13 841.18,73.84 845.15,73.43 C 850.8,72.99 856.53,73.11 862.08,74.37 C 863.07,71.29 863.9,68.16 864.57,64.99 C 834.67,64.97 804.77,64.95 774.87,64.95 C 770.38,80.9 766.35,96.96 761.83,112.9 C 760.17,119.14 754.85,124.85 748.08,124.99 C 740.3,125.01 732.51,125.05 724.73,124.88 C 726.02,120.53 727.57,116.26 729.14,112 C 732.74,111.99 738.12,112.82 739.5,108.39 C 743.71,93.98 747.61,79.48 751.53,64.99 C 742.91,64.96 734.3,65.03 725.69,64.96 C 721.61,79.96 717.81,95.04 713.78,110.06 C 713.1,112.63 712.5,115.26 712.51,117.93 C 712.69,122 715.51,125.19 717.29,128.66 C 724.97,142.34 733.08,155.78 740.72,169.48 C 732.2,169.54 723.65,169.8 715.14,169.31 C 709.01,158.9 703.37,148.14 697.34,137.65 C 694.91,132.83 691.55,128.36 690.22,123.06 C 689.63,118.41 689.89,113.64 691.22,109.14 C 695.25,94.39 699.55,79.72 703.51,64.96 C 698.61,64.93 693.72,65.03 688.82,64.97 C 689.85,60.65 690.84,56.32 692.11,52.07 z"
       id="path13"
       style="opacity:1;fill:#232c65" />
    <path
       d="M 233.28,407.82 C 240.16,407.51 247.22,406.17 254.02,407.82 C 257.72,408.56 259.59,412.46 259.94,415.9 C 260.55,421.06 258.31,425.88 256.54,430.58 C 251.3,444.34 246.13,458.13 240.79,471.86 C 238.64,477.39 234.99,483.1 228.96,484.83 C 223.86,485.44 218.69,484.87 213.61,484.3 C 211.45,484.13 209.51,483.2 207.72,482.06 C 215.83,457.19 224.89,432.61 233.28,407.82 z"
       id="path15"
       style="opacity:1;fill:#232c65" />
    <path
       d="M 196.15,517.03 C 201.75,517.07 207.32,516.16 212.92,516.36 C 216.06,516.58 219.76,517.45 221.36,520.47 C 223.94,525.32 222.66,531.03 220.91,535.93 C 215.38,550.42 209.85,564.9 204.32,579.39 C 202.71,583.47 200.88,587.66 197.64,590.74 C 194.63,593.65 190.24,595 186.1,594.46 C 180.81,593.71 175.06,594.53 170.4,591.37 C 178.88,566.55 187.47,541.77 196.15,517.03 z"
       id="path17"
       style="opacity:1;fill:#232c65" />
  </g>
  <g
     id="#ffffffff">
    <path
       d="M 32.03,29.12 C 39.6,22.15 49.76,18.21 60.02,18 C 353.02,18 646.02,18 939.02,18 C 949.13,18.05 959.31,21.43 967,28.09 C 976.47,36.14 982.48,48.5 982.04,61.02 C 982,101.96 982.04,142.91 982.02,183.85 C 660.68,183.85 339.34,183.84 18,183.85 C 17.99,142.58 18,101.3 18,60.02 C 18.18,48.37 23.27,36.85 32.03,29.12 M 613.48,33.46 C 610.79,39.37 609.64,45.81 607.84,52.01 C 578.89,52.12 549.92,52.02 520.97,52.15 C 518.92,55.92 518.59,60.75 517.6,65 C 546.46,65 575.32,64.95 604.17,64.97 C 603.13,67.97 603.1,71.72 600.79,74.02 C 591.23,75.08 581.5,73.4 571.9,74.33 C 567.57,74.96 563.55,77.59 561.39,81.41 C 559.48,85.37 558.94,89.81 557.9,94.04 C 556.98,99.05 555.19,103.93 555.01,109.05 C 554.86,112.78 557.88,116.16 561.65,116.37 C 570.39,117.15 579.2,116.69 587.96,117.14 C 588.09,123.43 586.56,129.68 584.59,135.61 C 581.89,138.79 577.13,136.9 573.56,136.89 C 572.79,134.98 572.05,132.82 570.12,131.79 C 565.51,129.09 559.87,129.92 554.9,130.96 C 549.51,131.92 544.3,136.18 543.99,141.92 C 543.52,146.35 545.79,150.37 548.04,153.99 C 545.8,160.26 543.65,166.57 541.81,172.98 C 549.45,173.02 557.08,172.99 564.71,173 C 566.57,165.68 568.73,158.43 570.44,151.07 C 577.68,151.3 584.92,151.99 592.17,151.83 C 599.19,151.12 604.77,145.25 606.71,138.7 C 608.61,132.21 610.57,125.74 612.21,119.18 C 613.23,115.38 612.87,111.29 611.27,107.71 C 610.36,105.7 608.48,103.74 606.1,104.01 C 597.04,103.83 587.96,104.39 578.93,103.53 C 578.4,98.57 579.97,93.79 581.27,89.08 C 582,86.84 584.79,86.14 586.89,86.08 C 598.6,86.28 610.31,86.75 622.02,86.69 L 622.58,86.16 C 624.67,79.24 626.43,72.23 628.49,65.3 C 629.94,64.83 631.51,65.02 633.03,64.96 C 645.99,65.05 658.95,64.89 671.92,64.98 C 673.11,60.76 673.92,56.45 674.96,52.19 C 660.76,51.98 646.56,52.12 632.37,52.05 C 633.56,47.54 634.86,43.05 636.2,38.58 C 640.02,38.65 643.85,38.73 647.68,38.77 C 647.06,41.16 646.42,43.53 645.82,45.92 C 653.27,45.86 660.75,45.89 668.18,45.32 C 670.35,40.87 672.41,35.03 669.53,30.41 C 667.76,27.57 664.3,26.1 661.03,26.2 C 649.37,26.12 637.71,26 626.05,25.98 C 620.89,25.73 615.54,28.64 613.48,33.46 M 197.96,34.81 C 195.93,40.45 194.52,46.29 192.82,52.04 C 160.83,52.04 128.84,52.13 96.84,52.08 C 95.66,56.34 94.53,60.62 93.79,64.99 C 125.53,65.01 157.28,64.95 189.02,64.95 C 188.15,68.13 187.41,71.33 186.7,74.54 C 172.12,75.6 157.42,74.1 142.9,76.12 C 138.02,76.73 133.07,79.65 131.7,84.65 C 126.52,101.55 121.51,118.51 116.6,135.49 C 114.75,141.15 117.05,148.7 122.99,150.84 C 136.64,151.91 150.36,151.11 164.04,151.39 C 162.25,157.48 160.27,163.52 158.8,169.69 C 166.5,169.95 174.2,170.02 181.9,170 C 192.06,135.01 201.8,99.9 212.06,64.94 C 216.72,64.98 221.38,65 226.04,64.98 C 216.15,99.94 206.16,134.89 196.6,169.94 C 204.15,170.07 211.67,170.78 219.22,170.95 C 229.25,135.67 238.84,100.27 248.82,64.98 C 256.46,64.99 264.1,64.99 271.74,64.99 C 273.41,60.86 274.23,56.48 275.15,52.14 C 267.59,52.03 260.03,52.12 252.48,52.09 C 253.49,46.99 255.55,42.12 256.13,36.95 C 256.88,31.77 252.26,26.48 246.96,26.99 C 235.64,27.22 224.34,26.41 213.02,26.33 C 207.12,26.5 200.4,28.98 197.96,34.81 M 292.33,52.11 C 291.19,56.34 290.2,60.61 289.16,64.87 C 293.47,65.04 297.78,64.99 302.1,64.98 C 297.85,79.79 293.77,94.63 289.62,109.46 C 287.78,115.86 287.53,123.07 291.03,128.98 C 298.63,142.44 305.99,156.05 313.75,169.42 C 322.22,169.91 330.74,169.52 339.23,169.39 C 330.38,154.03 321.55,138.67 312.73,123.3 C 310.72,120.22 310.55,116.37 311.58,112.91 C 315.73,96.93 319.92,80.96 324.17,65 C 332.82,64.97 341.47,65.01 350.13,64.97 C 346.3,78.54 342.71,92.17 338.83,105.73 C 338.23,107.41 337.99,109.37 336.67,110.69 C 334,112.6 330.57,111.85 327.51,112.1 C 326.09,116.38 324.48,120.59 323.25,124.93 C 330.84,125.03 338.43,125 346.03,125.01 C 352.79,125.12 358.46,119.52 360.23,113.29 C 364.72,97.24 368.91,81.11 373.17,65 C 401.16,64.99 429.15,64.98 457.15,64.99 C 450.34,89.15 443.78,113.37 436.89,137.5 C 430.25,137.45 423.62,137.39 416.99,137.34 C 414.98,137.07 412.4,137.65 411.06,135.74 C 410.38,132.83 411.11,129.87 412.08,127.12 C 416.49,113.67 420.6,100.11 425,86.65 C 428.22,86.55 431.45,86.56 434.69,86.7 C 436.3,82.53 437.59,78.25 439.04,74.03 C 421.42,74.07 403.8,73.23 386.17,73.23 C 384.89,77.46 383.67,81.71 382.58,86 C 388.23,86 393.88,85.99 399.53,86 C 395.98,99.18 392.18,112.29 388.54,125.44 C 387.36,129.88 385.67,134.31 385.95,138.99 C 385.85,143.52 388.28,148.71 393.02,149.84 C 406.43,150.43 419.87,150.64 433.31,150.79 C 431.58,157.03 429.72,163.24 428.09,169.51 C 435.67,169.98 443.28,170.02 450.88,170 C 461.06,135.02 470.81,99.91 481.03,64.95 C 487.56,64.94 494.09,65.01 500.62,64.9 C 501.55,60.63 502.69,56.41 503.38,52.09 C 433.03,52.1 362.68,52.06 292.33,52.11 M 692.11,52.07 C 690.84,56.32 689.85,60.65 688.82,64.97 C 693.72,65.03 698.61,64.93 703.51,64.96 C 699.55,79.72 695.25,94.39 691.22,109.14 C 689.89,113.64 689.63,118.41 690.22,123.06 C 691.55,128.36 694.91,132.83 697.34,137.65 C 703.37,148.14 709.01,158.9 715.14,169.31 C 723.65,169.8 732.2,169.54 740.72,169.48 C 733.08,155.78 724.97,142.34 717.29,128.66 C 715.51,125.19 712.69,122 712.51,117.93 C 712.5,115.26 713.1,112.63 713.78,110.06 C 717.81,95.04 721.61,79.96 725.69,64.96 C 734.3,65.03 742.91,64.96 751.53,64.99 C 747.61,79.48 743.71,93.98 739.5,108.39 C 738.12,112.82 732.74,111.99 729.14,112 C 727.57,116.26 726.02,120.53 724.73,124.88 C 732.51,125.05 740.3,125.01 748.08,124.99 C 754.85,124.85 760.17,119.14 761.83,112.9 C 766.35,96.96 770.38,80.9 774.87,64.95 C 804.77,64.95 834.67,64.97 864.57,64.99 C 863.9,68.16 863.07,71.29 862.08,74.37 C 856.53,73.11 850.8,72.99 845.15,73.43 C 841.18,73.84 838.52,77.13 836.4,80.17 C 835.13,77.16 832.77,73.82 829.09,74.06 C 818.73,73.97 808.36,74 798,74.02 C 791.16,74.12 785.85,80.02 784.25,86.31 C 776.39,114.16 768.66,142.04 760.84,169.9 C 768.57,170.04 776.3,169.77 784.04,169.78 C 790.81,145.94 797.16,121.98 803.77,98.1 C 804.96,94.31 805.32,90.11 807.82,86.87 C 811.87,86.57 815.93,86.91 819.97,87.18 C 820.26,88.74 820.56,90.35 820.07,91.91 C 817.4,102.94 814.22,113.85 811.74,124.93 C 819.14,124.73 826.54,124.77 833.95,124.8 C 836.95,113.33 839.44,101.73 842.35,90.23 C 842.68,88.85 843.53,87.41 845.05,87.13 C 848.69,86.44 852.43,86.64 856.12,86.94 C 856.66,87.81 857.21,88.68 857.77,89.56 C 850.09,116.26 842.46,142.98 834.88,169.72 C 842.56,170.05 850.25,169.98 857.94,170.01 C 867.99,135.15 877.69,100.19 887.52,65.28 C 892.65,64.59 897.88,65.16 903.06,65.01 C 904.38,60.77 905.58,56.5 906.48,52.15 C 835.03,52.06 763.57,52.11 692.11,52.07 z"
       id="path20"
       style="opacity:1;fill:#ffffff" />
    <path
       d="M 219.34,38.84 C 223.77,38.48 228.22,38.76 232.66,38.97 C 232.22,43.43 230.68,47.65 229.6,51.97 C 224.96,52.12 220.31,52.11 215.66,52.07 C 216.72,47.61 218.2,43.27 219.34,38.84 z"
       id="path22"
       style="opacity:1;fill:#ffffff" />
    <path
       d="M 163.68,88.05 C 169.57,87.83 175.47,87.64 181.37,87.61 C 178.78,96.75 176.38,105.94 173.54,115 C 170.7,105.86 166.92,97.05 163.68,88.05 z"
       id="path24"
       style="opacity:1;fill:#ffffff" />
    <path
       d="M 142.85,124.05 C 144.61,117.75 146.02,111.36 148.05,105.14 C 151.77,116.04 155.08,127.07 158.71,138 C 152.79,137.5 146.52,139.12 140.87,136.93 C 140,132.51 141.81,128.26 142.85,124.05 z"
       id="path26"
       style="opacity:1;fill:#ffffff" />
    <path
       d="M 388.92,380 C 424.02,331.67 458.86,283.15 493.84,234.74 C 478.86,284.42 462.77,333.77 447.58,383.38 C 463.75,383.38 479.92,383.17 496.09,383.12 C 485.26,417.37 474.26,451.57 463.65,485.88 C 473.62,487.06 483.67,486.86 493.68,487.54 C 504.93,451.57 516.79,415.77 527.84,379.75 C 522.99,379.26 518.12,379.27 513.26,379.24 C 518.87,372.76 523.69,365.67 528.75,358.76 C 557.72,318.76 586.73,278.77 615.69,238.76 C 616.45,237.39 617.93,236.87 619.32,236.37 C 604.71,285.45 589.38,334.31 574.73,383.38 C 591.96,383.55 609.19,383.16 626.41,383.6 C 599.56,463.86 572.45,544.04 545.85,624.38 C 550.88,624.56 555.91,624.72 560.93,625 C 523.92,673.08 487.85,721.87 450.86,769.97 C 466.46,720.3 481.49,670.45 497.07,620.77 C 482.42,620.61 467.76,620.88 453.12,620.5 C 463.58,585.95 473.8,551.32 484.18,516.74 C 474.27,515.68 464.34,514.77 454.4,514.02 C 442.06,550.95 428.95,587.63 416.76,624.61 C 421.28,624.63 425.81,624.57 430.34,624.71 C 396.85,670.93 363.57,717.31 329.99,763.46 C 344.74,715.86 359.82,668.36 374.48,620.74 C 358.28,620.79 342.09,620.56 325.9,620.59 C 351.56,540.42 377.05,460.19 402.66,379.99 C 398.07,380.01 393.49,380 388.92,380 z"
       id="path28"
       style="opacity:1;fill:#ffffff" />
    <path
       d="M 164.55,383.35 C 165.9,382.64 167.55,383.07 169.02,382.93 C 230.68,383.05 292.34,382.98 354,383 C 357.78,383.05 362.56,384.31 363.65,388.48 C 365.03,394.3 363.6,400.34 361.83,405.93 C 352.91,433.64 344.02,461.36 335.08,489.07 C 332.84,495.71 325.69,498.32 319.99,501.27 C 323.01,504.44 325.56,508.49 325.22,513.06 C 325.1,520.45 321.2,527.02 318.88,533.86 C 307.58,562.79 296.47,591.8 284.92,620.62 C 217.91,620.82 150.9,620.49 83.89,621.07 C 82.55,618.67 82.35,615.82 83.17,613.22 C 109.08,536.19 133.87,458.67 164.55,383.35 M 233.28,407.82 C 224.89,432.61 215.83,457.19 207.72,482.06 C 209.51,483.2 211.45,484.13 213.61,484.3 C 218.69,484.87 223.86,485.44 228.96,484.83 C 234.99,483.1 238.64,477.39 240.79,471.86 C 246.13,458.13 251.3,444.34 256.54,430.58 C 258.31,425.88 260.55,421.06 259.94,415.9 C 259.59,412.46 257.72,408.56 254.02,407.82 C 247.22,406.17 240.16,407.51 233.28,407.82 M 196.15,517.03 C 187.47,541.77 178.88,566.55 170.4,591.37 C 175.06,594.53 180.81,593.71 186.1,594.46 C 190.24,595 194.63,593.65 197.64,590.74 C 200.88,587.66 202.71,583.47 204.32,579.39 C 209.85,564.9 215.38,550.42 220.91,535.93 C 222.66,531.03 223.94,525.32 221.36,520.47 C 219.76,517.45 216.06,516.58 212.92,516.36 C 207.32,516.16 201.75,517.07 196.15,517.03 z"
       id="path30"
       style="opacity:1;fill:#ffffff" />
    <path
       d="M 825.45,383.05 C 838.33,383.32 851.21,384.23 864.11,384.04 C 881.88,385.25 899.7,384.66 917.48,385.68 C 895.04,454.99 871.98,524.11 849.53,593.42 C 860.65,594.3 871.81,593.62 882.93,594.42 C 887.31,594.65 891.69,594.78 896.08,594.91 C 896.6,604.64 893.1,614.3 887.21,621.98 C 840.59,621.25 793.96,621.05 747.33,620.96 C 747.12,616.17 746.35,611.26 747.39,606.54 C 773.37,532.03 799.61,457.61 825.45,383.05 z"
       id="path32"
       style="opacity:1;fill:#ffffff" />
    <path
       d="M 661.32,383.52 C 708.27,383.07 755.24,384.01 802.19,383.58 C 801.43,391.54 799.39,399.59 794.75,406.22 C 784.47,406.27 774.21,407.13 763.93,407 C 757.89,407.26 751.68,406.68 745.76,407.74 C 736.47,434.28 727.54,460.97 718.29,487.54 C 725.49,488.07 732.72,487.9 739.94,488.11 C 748.32,488.7 756.72,489.04 765.12,489.01 C 764.58,498.09 762.13,507.06 758.04,515.18 C 741.64,515.28 725.19,514.96 708.82,515.72 C 699.36,541.26 689.9,566.84 680.84,592.54 C 696.59,593.48 712.28,595.03 728.03,596.06 C 728.63,605.08 725.66,613.84 721.62,621.77 C 676.38,621.27 631.14,620.92 585.9,620.97 C 581.55,621.4 578.77,616.81 580.16,612.93 C 594.2,570.93 608.28,528.94 623.08,487.2 C 635.26,452.44 648.23,417.95 661.32,383.52 z"
       id="path34"
       style="opacity:1;fill:#ffffff" />
  </g>
</svg>
